<svg width="193" height="193" viewBox="0 0 193 193" fill="none" xmlns="http://www.w3.org/2000/svg">
<path d="M96.5677 106.997C102.35 106.997 107.038 102.31 107.038 96.5271C107.038 90.7447 102.35 86.0571 96.5677 86.0571C90.7852 86.0571 86.0977 90.7447 86.0977 96.5271C86.0977 102.31 90.7852 106.997 96.5677 106.997Z" fill="#2EF0FF"/>
<path fill-rule="evenodd" clip-rule="evenodd" d="M94.328 65.9174C101.727 65.371 109.073 67.5205 115.01 71.9687C120.947 76.417 125.074 82.8635 126.628 90.1175C128.183 97.3715 127.06 104.943 123.466 111.433L124.166 111.821C127.853 105.161 129.006 97.3928 127.411 89.9499C125.816 82.5069 121.581 75.8926 115.49 71.3285C109.398 66.7644 101.86 64.559 94.2691 65.1196C86.6778 65.6801 79.5459 68.9689 74.1906 74.3783C68.8353 79.7876 65.6185 86.9523 65.1342 94.5487C64.6499 102.145 66.931 109.66 71.5561 115.706C76.1811 121.752 82.8377 125.919 90.2963 127.439C97.7549 128.959 105.512 127.729 112.134 123.975L111.739 123.279C105.285 126.937 97.7253 128.137 90.4561 126.655C83.1868 125.174 76.6991 121.112 72.1915 115.22C67.6838 109.328 65.4606 102.003 65.9326 94.5996C66.4045 87.196 69.5398 80.2132 74.7591 74.9411C79.9785 69.669 86.9294 66.4637 94.328 65.9174ZM110.947 117.537C110.947 113.875 113.915 110.907 117.577 110.907C121.239 110.907 124.207 113.875 124.207 117.537C124.207 121.199 121.239 124.167 117.577 124.167C113.915 124.167 110.947 121.199 110.947 117.537ZM117.577 110.407C113.639 110.407 110.447 113.599 110.447 117.537C110.447 121.475 113.639 124.667 117.577 124.667C121.515 124.667 124.707 121.475 124.707 117.537C124.707 113.599 121.515 110.407 117.577 110.407Z" fill="#2EF0FF"/>
<path fill-rule="evenodd" clip-rule="evenodd" d="M95.0805 1.41115C119.827 1.03415 143.746 10.316 161.76 27.2865C179.775 44.257 190.466 67.58 191.566 92.3047C192.665 117.029 184.085 141.209 167.648 159.711L168.246 160.243C184.822 141.585 193.473 117.202 192.365 92.2691C191.256 67.3365 180.475 43.8174 162.309 26.7042C144.143 9.591 120.023 0.23107 95.0683 0.611241C70.114 0.991413 46.2901 11.0818 28.6539 28.7404C11.0176 46.399 0.957498 70.2356 0.608975 95.1905C0.260452 120.145 9.65096 144.254 26.7872 162.398C43.9234 180.542 67.4562 191.294 92.3902 192.371C117.324 193.448 141.696 184.765 160.333 168.166L159.801 167.568C141.32 184.029 117.151 192.639 92.4247 191.572C67.6986 190.504 44.3621 179.841 27.3688 161.849C10.3755 143.856 1.06328 119.948 1.4089 95.2016C1.75451 70.4549 11.7307 46.8171 29.2199 29.3057C46.7091 11.7943 70.3343 1.78815 95.0805 1.41115ZM168.318 163.817C168.318 166.28 166.321 168.277 163.858 168.277C161.395 168.277 159.398 166.28 159.398 163.817C159.398 161.354 161.395 159.357 163.858 159.357C166.321 159.357 168.318 161.354 168.318 163.817Z" fill="#2EF0FF"/>
</svg>
