<svg width="33" height="33" viewBox="0 0 33 33" fill="none" xmlns="http://www.w3.org/2000/svg">
<path d="M6.13 16H0" stroke="#2EF0FF" stroke-width="0.8" stroke-miterlimit="10"/>
<path d="M16.4603 29.78C23.8554 29.78 29.8503 23.7851 29.8503 16.39C29.8503 8.99491 23.8554 3 16.4603 3C9.06522 3 3.07031 8.99491 3.07031 16.39C3.07031 23.7851 9.06522 29.78 16.4603 29.78Z" stroke="#2EF0FF" stroke-width="0.8" stroke-miterlimit="10"/>
<path d="M16.4609 0V6.13" stroke="#2EF0FF" stroke-width="0.8" stroke-miterlimit="10"/>
<path d="M32.9093 16.45H26.7793" stroke="#2EF0FF" stroke-width="0.8" stroke-miterlimit="10"/>
<path d="M16.4609 26.72V32.85" stroke="#2EF0FF" stroke-width="0.8" stroke-miterlimit="10"/>
<path d="M4.66992 4.6001L8.99992 8.9401" stroke="#2EF0FF" stroke-width="0.8" stroke-miterlimit="10"/>
<path d="M9.3107 23.8501L4.9707 28.1801" stroke="#2EF0FF" stroke-width="0.8" stroke-miterlimit="10"/>
<path d="M28.2502 4.91016L23.9102 9.25016" stroke="#2EF0FF" stroke-width="0.8" stroke-miterlimit="10"/>
<path d="M23.8691 23.8101L28.2091 28.1501" stroke="#2EF0FF" stroke-width="0.8" stroke-miterlimit="10"/>
<path d="M9.80078 20.4501H13.8708L18.8908 12.4001H22.6808" stroke="#2EF0FF" stroke-width="0.8" stroke-miterlimit="10"/>
</svg>
